<svg width="24" height="24" viewBox="0 0 24 24" fill="none" xmlns="http://www.w3.org/2000/svg">
<mask id="mask0_191003_55" style="mask-type:alpha" maskUnits="userSpaceOnUse" x="3" y="0" width="18" height="24">
<path fill-rule="evenodd" clip-rule="evenodd" d="M12.0003 0.351562C16.9169 0.351562 20.9029 1.72203 20.9029 3.53092V20.4688C20.9029 22.2776 16.9169 23.6481 12.0003 23.6481H11.8753C7.01428 23.6207 3.09772 22.2091 3.09766 20.4688V3.53092L3.10059 3.4463C3.22258 1.67942 7.16056 0.351568 12.0003 0.351562Z" fill="#E8E8E8"/>
</mask>
<g mask="url(#mask0_191003_55)">
<path d="M8.23263 -2.39103C10.3155 -4.47382 13.6928 -4.47382 15.7756 -2.39103L23.6897 5.52173C25.5448 7.37697 25.7751 10.3069 24.2326 12.4293L21.3903 16.3394L13.4176 8.36809C12.6365 7.58742 11.3704 7.5873 10.5894 8.36809L2.61806 16.3381L-0.223083 12.4293C-1.76552 10.3069 -1.53534 7.37697 0.319886 5.52173L8.23263 -2.39103Z" fill="url(#paint0_radial_191003_55)"/>
<path fill-rule="evenodd" clip-rule="evenodd" d="M11.0637 8.83583C11.5844 8.31514 12.4284 8.31514 12.9491 8.83583L22.6183 18.5039C23.1389 19.0244 23.1385 21.534 22.6183 22.0559L12.6783 31.996C12.1575 32.5161 11.3134 32.5165 10.7929 31.996L1.1249 22.3266C0.604199 21.806 0.604199 19.2953 1.1249 18.7746L11.0637 8.83583ZM13.4205 16.2212C12.6395 15.4403 11.3734 15.4403 10.5923 16.2212L4.85277 21.9608C4.07187 22.7418 4.07176 24.008 4.85277 24.7889L10.5923 30.5285C11.3733 31.3095 12.6395 31.3095 13.4205 30.5285L19.1601 24.7889C19.941 24.008 19.941 22.7418 19.1601 21.9608L13.4205 16.2212Z" fill="url(#paint1_radial_191003_55)"/>
<path d="M5.3202 24.3126C4.79952 23.7919 4.79952 22.9478 5.3202 22.427L11.0598 16.6874C11.5805 16.1667 12.4248 16.1667 12.9455 16.6874L18.685 22.427C19.2058 22.9478 19.2058 23.7919 18.685 24.3126L12.9455 30.0523C12.4248 30.573 11.5805 30.573 11.0598 30.0523L5.3202 24.3126Z" fill="url(#paint2_radial_191003_55)"/>
</g>
<path d="M12.001 6.70834C16.9182 6.70834 20.9043 5.28533 20.9043 3.52995C20.9043 1.77458 16.9182 0.351562 12.001 0.351562C7.08383 0.351562 3.09766 1.77458 3.09766 3.52995C3.09766 5.28533 7.08383 6.70834 12.001 6.70834Z" fill="#0667C3" fill-opacity="0.6"/>
<path d="M12.001 6.70834C16.9182 6.70834 20.9043 5.28533 20.9043 3.52995C20.9043 1.77458 16.9182 0.351562 12.001 0.351562C7.08383 0.351562 3.09766 1.77458 3.09766 3.52995C3.09766 5.28533 7.08383 6.70834 12.001 6.70834Z" fill="url(#paint3_radial_191003_55)"/>
<defs>
<radialGradient id="paint0_radial_191003_55" cx="0" cy="0" r="1" gradientUnits="userSpaceOnUse" gradientTransform="translate(12.4659 17.6048) rotate(-90.1205) scale(14.9343 37.5019)">
<stop stop-color="#003067"/>
<stop offset="1" stop-color="#0078D4"/>
</radialGradient>
<radialGradient id="paint1_radial_191003_55" cx="0" cy="0" r="1" gradientUnits="userSpaceOnUse" gradientTransform="translate(12.6355 21.9333) rotate(-90) scale(9.66668 33.5172)">
<stop stop-color="#0064B1"/>
<stop offset="0.504808" stop-color="#0078D4"/>
<stop offset="1" stop-color="#5EA0EF"/>
</radialGradient>
<radialGradient id="paint2_radial_191003_55" cx="0" cy="0" r="1" gradientUnits="userSpaceOnUse" gradientTransform="translate(12.0027 25.762) rotate(-90) scale(7.83334 17.1287)">
<stop offset="0.0851063" stop-color="#0699BA"/>
<stop offset="0.553191" stop-color="#32BEDD"/>
<stop offset="1" stop-color="#50E6FF"/>
</radialGradient>
<radialGradient id="paint3_radial_191003_55" cx="0" cy="0" r="1" gradientUnits="userSpaceOnUse" gradientTransform="translate(6.68228 1.91667) rotate(73.1562) scale(6.723 43.3316)">
<stop stop-color="#0667C3" stop-opacity="0"/>
<stop offset="0.356608" stop-color="#044C90" stop-opacity="0"/>
<stop offset="1" stop-color="#03315D"/>
</radialGradient>
</defs>
</svg>
